<?xml version="1.0" encoding="utf-8"?>
<!-- Generator: Adobe Illustrator 21.1.0, SVG Export Plug-In . SVG Version: 6.00 Build 0)  -->
<svg version="1.1" id="Layer_1" xmlns="http://www.w3.org/2000/svg" xmlns:xlink="http://www.w3.org/1999/xlink" x="0px" y="0px"
	 viewBox="0 0 300 60" style="enable-background:new 0 0 300 60;" xml:space="preserve">
<style type="text/css">
	.st0{fill:#FFFFFF;}
</style>
<g>
	<path class="st0" d="M29.6,59C14,59,1.3,46.3,1.3,30.7C1.3,15,14,2.3,29.6,2.3C45.3,2.3,58,15,58,30.7C58,46.3,45.3,59,29.6,59z
		 M29.5,19.5c0,0,2.3,2.4,2.3,4.4c0,2.1-1.6,2.6-2.2,2.6c0,0-0.1,0-0.1,0h0c0,0-0.1,0-0.1,0c-0.6,0-2.2-0.5-2.2-2.6
		C27.2,21.9,29.5,19.5,29.5,19.5z M8.2,32.2h2.6v-4.8h4.3v-2h-4.3v-2.7h4.5v-2H8.2V32.2z M31.9,19.8h2.7L31.4,8.4h-3.5l-3.3,11.4
		h2.5l0.7-2.6h3.3L31.9,19.8z M30.7,15.3h-2.4l1.1-5h0.2L30.7,15.3z M42.7,26.5c0,3.4,1.6,5.9,4.8,5.9c3.3,0,4.9-2.6,4.9-5.9
		c0-3.4-1.6-5.9-4.9-5.9C44.3,20.6,42.7,23.2,42.7,26.5z M45.5,26.5c0-2.2,0.5-4,2.1-4c1.6,0,2.1,1.8,2.1,4c0,2.2-0.6,4-2.1,4
		C46,30.5,45.5,28.7,45.5,26.5z M28.4,55.9c0.2-1.1,0.3-2.9,0.3-5c0-0.6,0-0.2,0-0.4c0-2.9-0.1-3.9-2.1-4.6c-3-1-4.3-4.4-3.6-8.6
		L13,11.8c-5.2,4.6-8.6,11.4-8.6,18.9C4.4,44.2,15.1,55.2,28.4,55.9z M29.6,39.5c-4-0.9-5.5-4.6-5.5-7.8L15.3,10
		c-0.6,0.4-1.1,0.8-1.7,1.3c1.9,4.6,10.7,25.3,10.7,25.3c1.5,3.7,4.4,2.5,5,5.6c0.2,0.7,0.2,1.1,0.2,1.1h0.3c0,0,0-0.3,0.2-1.1
		c0.7-3.1,3.5-1.8,5-5.6c0,0,8.7-20.7,10.7-25.3c-0.5-0.4-1.1-0.9-1.7-1.3l-8.8,21.7C35.1,34.9,33.7,38.6,29.6,39.5L29.6,39.5z
		 M29.6,32.9c-1.7-0.4-3.8-2.1-4.1-4.2c-0.1-0.8-0.2-1.1-0.1-2.7L17.7,8.5c-0.6,0.3-1.2,0.7-1.8,1.1c2.3,5.2,9.4,21.1,9.4,21.1
		c1.1,2.4,3.1,2.4,3.8,3.8c0.4,0.8,0.4,1.6,0.5,1.6h0.3c0-0.1,0-0.8,0.4-1.6c0.7-1.4,2.6-1.4,3.8-3.8c0,0,7.1-15.9,9.4-21.1
		c-0.6-0.4-1.2-0.8-1.8-1.1L33.8,26c0.1,1.6,0,1.9-0.1,2.7C33.5,30.9,31.3,32.6,29.6,32.9L29.6,32.9z M29.7,30l0.1-1
		c0.5-2.2,2.1-1.9,3.2-4.1c0,0,0,0,0,0c0-0.1,5.5-11.8,7.8-16.7c-3.4-1.7-7.2-2.6-11.2-2.6c-4,0-7.9,1-11.2,2.6
		c2.3,4.9,7.8,16.7,7.8,16.7c0,0,0,0,0,0c1.1,2.2,2.7,1.9,3.2,4.1l0.1,1H29.7z M54.8,30.7c0-7.5-3.3-14.3-8.6-18.9L36.2,37.4
		c0.7,4.2-0.6,7.6-3.6,8.6c-2,0.6-2.1,1.6-2.1,4.6c0,0.2,0-0.2,0,0.4c0,2.1,0.2,3.9,0.3,5C44.2,55.2,54.8,44.2,54.8,30.7z
		 M12.4,38.1c0,0,0.4,0.8,0.7,1.4c0.3,0.6,0.7,1.2,0.7,1.2l-0.7,0.4c0,0-0.5-0.8-1-1.8c-0.1,0.1-0.9,0.5-1.1,0.5
		c0.1,0.1,0.9,1.7,0.9,1.7l-0.7,0.4c0,0-0.8-1.6-0.9-1.7c-0.1,0.1-1.9,1-1.9,1l-0.4-0.8L12.4,38.1L12.4,38.1z M15,42.4l0.6,0.7
		l-3.7,3.1l-0.6-0.7L15,42.4L15,42.4z M18.5,45.7l0.7,0.5l-0.9,5.1l-0.8-0.5c0,0,0.2-1,0.2-1.1c0,0-0.5-0.3-1-0.7
		c-0.5-0.3-0.9-0.7-1-0.8c-0.1,0.1-1,0.6-1,0.6l-0.7-0.6L18.5,45.7L18.5,45.7z M16.3,47.8c0.1,0.1,0.4,0.3,0.7,0.6
		c0.3,0.2,0.7,0.4,0.8,0.5c0-0.2,0.4-1.9,0.5-2.2C18,46.8,16.5,47.7,16.3,47.8z M21.5,47.5c0,0,0.8,0.4,1.9,0.8
		c0.8,0.3,1.4,0.5,2,0.6l-0.2,0.7c0,0-0.6-0.1-1.6-0.4c-0.1,0.2-1.3,3.8-1.3,3.8l-0.9-0.3c0,0,1.3-3.6,1.3-3.8
		c-0.9-0.3-1.5-0.7-1.5-0.7L21.5,47.5z M36.7,48.5c0.3,0.2,0.5,0.5,0.7,0.9c0.1,0.2,0.1,0.3,0.1,0.5c0,0.7-0.5,1.2-1.3,1.5
		c0,0-0.4,0.1-0.6,0.2c0,0.2,0.6,1.8,0.6,1.8l-0.8,0.2l-1.4-4.6l1.3-0.4C35.7,48.3,36.3,48.3,36.7,48.5z M34.9,49.4
		c0,0.1,0.4,1.3,0.4,1.4c0.2-0.1,0.6-0.2,0.6-0.2c0.1,0,0.4-0.2,0.6-0.4c0-0.1,0.1-0.2,0.1-0.3c0-0.1,0-0.2,0-0.2
		c-0.1-0.2-0.2-0.3-0.3-0.4c-0.3-0.1-0.6-0.1-0.8,0C35.3,49.2,35,49.3,34.9,49.4z M39.5,46.5l4.2,3L42.9,50c0,0-0.8-0.6-0.9-0.7
		c0,0-0.5,0.3-0.9,0.6c-0.4,0.3-0.9,0.5-1,0.5c0,0.1,0.2,1.1,0.2,1.1L39.5,52l-0.7-5.1L39.5,46.5z M40,49.7c0.1-0.1,0.4-0.2,0.8-0.4
		c0.3-0.2,0.5-0.3,0.6-0.4c-0.2-0.1-1.5-1.1-1.7-1.3C39.7,47.9,40,49.5,40,49.7z M44.3,42.3l3.6,3.2l-0.7,0.8c0,0-3.4-1-3.9-1.1
		c0.4,0.4,2.5,2.6,2.5,2.6l-0.6,0.6l-3.4-3.5l0.8-0.7c0,0,3.3,1,3.8,1.1c-0.4-0.4-2.7-2.3-2.7-2.3L44.3,42.3z M45.9,39.9l4.2,2.4
		L49.7,43l-4.2-2.4L45.9,39.9z M47.8,35.8l0.7,0.4l-0.1,0.1c-0.2,0.3-0.3,0.4-0.4,0.8c-0.1,0.1-0.1,0.4,0,0.6
		c0.1,0.1,0.1,0.2,0.3,0.2c0.3,0.1,0.6-0.2,0.9-0.5c0.4-0.5,1-1,1.9-0.7c0.9,0.3,1.2,1.1,0.8,2.2c-0.1,0.3-0.3,0.6-0.5,0.9l0,0.1
		l-0.7-0.3l0.1-0.1c0.1-0.1,0.4-0.5,0.5-0.8c0.1-0.3,0.1-0.9-0.4-1c-0.4-0.1-0.7,0.2-1.1,0.5c-0.4,0.4-0.9,1-1.7,0.7
		c-0.4-0.1-0.6-0.3-0.8-0.6c-0.2-0.4-0.2-0.8,0-1.3C47.3,36.5,47.5,36.1,47.8,35.8L47.8,35.8z"/>
</g>
<g>
	<path class="st0" d="M69.3,8.9h6.6v10h-1.8v-8.5h-3v8.5h-1.8V8.9z"/>
	<path class="st0" d="M78.2,13.6c0-0.7,0-1.6-0.1-2.1h1.7c0,0.3,0.1,0.8,0.1,1.1h0c0.3-0.8,1-1.3,1.9-1.3c1.7,0,2.7,1.6,2.7,3.8
		c0,2.2-1,3.9-2.7,3.9c-0.9,0-1.5-0.4-1.9-1.1h0c0,0.4,0,1.2,0,1.7v2.3h-1.8V13.6z M82.6,15.2c0-1.4-0.5-2.5-1.3-2.5
		c-0.9,0-1.4,1.1-1.4,2.5c0,1.4,0.5,2.5,1.4,2.5C82.1,17.7,82.6,16.6,82.6,15.2z"/>
	<path class="st0" d="M85.9,15.2c0-2.3,1.2-3.9,3.2-3.9c2,0,3.2,1.6,3.2,3.9c0,2.3-1.2,3.9-3.2,3.9C87,19,85.9,17.5,85.9,15.2z
		 M90.4,15.2c0-1.5-0.5-2.5-1.4-2.5c-0.9,0-1.4,1-1.4,2.5c0,1.5,0.4,2.5,1.4,2.5C90,17.6,90.4,16.7,90.4,15.2z"/>
	<path class="st0" d="M93.2,17.4h0.7c0.5-0.9,0.7-2.1,0.7-3.8v-2.2h5.4v5.9h0.9v3.3h-1.6v-1.9h-4.5v1.9h-1.6V17.4z M98.2,17.4v-4.5
		h-1.9V14c0,1.3-0.1,2.6-0.6,3.5H98.2z"/>
	<path class="st0" d="M101.9,15.2c0-2.3,1.2-3.9,3.2-3.9c2,0,3.2,1.6,3.2,3.9c0,2.3-1.2,3.9-3.2,3.9C103.1,19,101.9,17.5,101.9,15.2
		z M106.5,15.2c0-1.5-0.5-2.5-1.4-2.5c-0.9,0-1.4,1-1.4,2.5c0,1.5,0.4,2.5,1.4,2.5C106,17.6,106.5,16.7,106.5,15.2z"/>
	<path class="st0" d="M110,11.5h3.2c1.4,0,2.3,0.7,2.3,1.9c0,0.9-0.6,1.5-1.3,1.7c0.8,0.1,1.5,0.8,1.5,1.7c0,1.4-1,2.1-2.5,2.1H110
		V11.5z M112.9,14.4c0.6,0,0.9-0.3,0.9-0.9c0-0.5-0.3-0.8-0.9-0.8h-1.1v1.7H112.9z M113,17.6c0.6,0,0.9-0.3,0.9-0.9
		c0-0.6-0.3-1-0.9-1h-1.2v1.9H113z"/>
	<path class="st0" d="M117.2,15.2c0-2.3,1.2-3.9,3.2-3.9c2,0,3.2,1.6,3.2,3.9c0,2.3-1.2,3.9-3.2,3.9C118.4,19,117.2,17.5,117.2,15.2
		z M121.8,15.2c0-1.5-0.5-2.5-1.4-2.5c-0.9,0-1.4,1-1.4,2.5c0,1.5,0.4,2.5,1.4,2.5C121.3,17.6,121.8,16.7,121.8,15.2z"/>
	<path class="st0" d="M124.5,18.8l0.1-1.4c0.1,0,0.3,0.1,0.4,0.1c0.9,0,1.1-0.6,1.1-6h5.3v7.3h-1.8v-5.9h-1.8c-0.1,4.9-0.5,6-2.3,6
		C125.2,18.9,124.7,18.9,124.5,18.8z"/>
	<path class="st0" d="M133.5,11.5h1.8v2.7h1.4c1.5,0,2.5,0.8,2.5,2.3c0,1.6-1,2.3-2.8,2.3h-2.8V11.5z M136.4,17.6
		c0.7,0,1.1-0.4,1.1-1.1c0-0.7-0.4-1.1-1.1-1.1h-1.2v2.1H136.4z"/>
	<path class="st0" d="M140.4,15.2c0-2.2,1.3-3.8,3.6-3.8c0.4,0,0.8,0,1.2,0.1l-0.1,1.4c-0.3-0.1-0.5-0.1-0.8-0.1
		c-1.2,0-1.9,1-1.9,2.4c0,1.4,0.7,2.4,2,2.4c0.3,0,0.6,0,0.8-0.1l0.1,1.4c-0.4,0.1-0.8,0.2-1.3,0.2C141.8,19,140.4,17.4,140.4,15.2z
		"/>
	<path class="st0" d="M148.1,12.9h-2v-1.4h5.7v1.4h-1.9v5.9h-1.8V12.9z"/>
	<path class="st0" d="M153.2,11.5h3.2c1.4,0,2.3,0.7,2.3,1.9c0,0.9-0.6,1.5-1.3,1.7c0.8,0.1,1.5,0.8,1.5,1.7c0,1.4-1,2.1-2.5,2.1
		h-3.2V11.5z M156.1,14.4c0.6,0,0.9-0.3,0.9-0.9c0-0.5-0.3-0.8-0.9-0.8H155v1.7H156.1z M156.2,17.6c0.6,0,0.9-0.3,0.9-0.9
		c0-0.6-0.3-1-0.9-1H155v1.9H156.2z"/>
	<path class="st0" d="M160.4,15.1c0-2.3,1.3-3.8,3.2-3.8c2,0,2.9,1.3,2.9,3.7c0,0.2,0,0.5,0,0.7h-4.3c0,1.1,0.8,2,2.1,2
		c0.6,0,1.1-0.1,1.7-0.4l0.1,1.4c-0.5,0.2-1.2,0.3-1.9,0.3C161.6,19,160.4,17.5,160.4,15.1z M164.8,14.5c0-1.2-0.4-2-1.3-2
		c-0.8,0-1.4,0.8-1.5,2H164.8z"/>
	<path class="st0" d="M168.2,11.5h1.8v2.8h2.3v-2.8h1.8v7.3h-1.8v-3.1H170v3.1h-1.8V11.5z"/>
	<path class="st0" d="M176.2,11.5h1.8v2.8h2.3v-2.8h1.8v7.3h-1.8v-3.1H178v3.1h-1.8V11.5z"/>
	<path class="st0" d="M183.9,16.7c0-1.6,1.2-2.5,3.3-2.5c0.2,0,0.6,0,0.9,0v-0.1c0-1.1-0.5-1.6-1.5-1.6c-0.7,0-1.4,0.2-2,0.6
		l-0.1-1.4c0.7-0.3,1.6-0.5,2.3-0.5c2.1,0,2.9,1.2,2.9,3c0,0.7,0,1.8,0,2.3c0,0.9,0,1.7,0.1,2.3h-1.5c0-0.1,0-0.4,0-0.6
		c0-0.2,0-0.4,0-0.6h0c-0.4,0.8-1.1,1.3-2.1,1.3C184.7,19,183.9,18.1,183.9,16.7z M188.2,15.4c-0.1,0-0.3,0-0.6,0
		c-1.4,0-2.1,0.4-2.1,1.3c0,0.6,0.4,1.1,1.1,1.1C187.7,17.8,188.2,16.7,188.2,15.4z"/>
	<path class="st0" d="M192.9,16c-1.2-0.5-1.4-1.6-1.4-2.2c0-1.6,0.9-2.3,2.9-2.3h2.7v7.3h-1.7v-2.6h-0.8l-1.4,2.6h-2L192.9,16z
		 M195.4,15v-2.2h-1c-0.8,0-1.2,0.3-1.2,1c0,0.7,0.5,1.1,1.2,1.1H195.4z"/>
	<path class="st0" d="M202.7,11.5h1.7v2.8c0,0.7,0,1.7-0.1,2.3l2.3-5.1h2v7.3H207v-3c0-0.8,0-1.4,0.1-2l-2.3,5h-2V11.5z"/>
	<path class="st0" d="M68.8,31.3c0-2.2,1.3-3.8,3.6-3.8c0.4,0,0.8,0,1.2,0.1L73.4,29c-0.3-0.1-0.5-0.1-0.8-0.1c-1.2,0-1.9,1-1.9,2.4
		c0,1.4,0.7,2.4,2,2.4c0.3,0,0.6,0,0.8-0.1l0.1,1.4c-0.4,0.1-0.8,0.2-1.3,0.2C70.2,35.1,68.8,33.6,68.8,31.3z"/>
	<path class="st0" d="M74.7,31.3c0-2.3,1.3-3.8,3.2-3.8c2,0,2.9,1.3,2.9,3.7c0,0.2,0,0.5,0,0.7h-4.3c0,1.1,0.8,2,2.1,2
		c0.6,0,1.1-0.1,1.7-0.4l0.1,1.4c-0.5,0.2-1.2,0.3-1.9,0.3C76,35.2,74.7,33.7,74.7,31.3z M79.2,30.6c0-1.2-0.4-2-1.3-2
		c-0.8,0-1.4,0.8-1.5,2H79.2z"/>
	<path class="st0" d="M81.7,34.9l0.1-1.4c0.1,0,0.3,0.1,0.4,0.1c0.9,0,1.1-0.6,1.1-6h5.3V35h-1.8V29H85c-0.1,4.9-0.5,6-2.3,6
		C82.4,35.1,81.9,35,81.7,34.9z"/>
	<path class="st0" d="M90.7,27.6h1.8v2.7h1.4c1.5,0,2.5,0.8,2.5,2.3c0,1.6-1,2.3-2.8,2.3h-2.8V27.6z M93.6,33.7
		c0.7,0,1.1-0.4,1.1-1.1c0-0.7-0.4-1.1-1.1-1.1h-1.2v2.1H93.6z"/>
	<path class="st0" d="M97.7,31.3c0-2.2,1.3-3.8,3.6-3.8c0.4,0,0.8,0,1.2,0.1l-0.1,1.4c-0.3-0.1-0.5-0.1-0.8-0.1
		c-1.2,0-1.9,1-1.9,2.4c0,1.4,0.7,2.4,2,2.4c0.3,0,0.6,0,0.8-0.1l0.1,1.4c-0.4,0.1-0.8,0.2-1.3,0.2C99,35.1,97.7,33.6,97.7,31.3z"/>
	<path class="st0" d="M104.1,27.6h1.8v3.2l2.2-3.2h2l-2.5,3.5l2.7,3.9h-2.1l-2.3-3.4V35h-1.8V27.6z"/>
	<path class="st0" d="M110.8,31.3c0-2.3,1.2-3.9,3.2-3.9c2,0,3.2,1.6,3.2,3.9c0,2.3-1.2,3.9-3.2,3.9C112,35.2,110.8,33.6,110.8,31.3
		z M115.4,31.3c0-1.5-0.5-2.5-1.4-2.5c-0.9,0-1.4,1-1.4,2.5c0,1.5,0.4,2.5,1.4,2.5C114.9,33.8,115.4,32.8,115.4,31.3z"/>
	<path class="st0" d="M120.3,31.1l-2-3.5h2c0.7,1.6,1,2.2,1.2,2.6h0c0.2-0.4,0.4-1,1.2-2.6h1.8l-2,3.5l2.1,3.9h-2
		c-0.9-1.8-1.2-2.5-1.3-2.8h0c-0.1,0.4-0.4,1.1-1.3,2.8h-1.9L120.3,31.1z"/>
	<path class="st0" d="M125.5,31.3c0-2.3,1.2-3.9,3.2-3.9c2,0,3.2,1.6,3.2,3.9c0,2.3-1.2,3.9-3.2,3.9
		C126.7,35.2,125.5,33.6,125.5,31.3z M130.1,31.3c0-1.5-0.5-2.5-1.4-2.5c-0.9,0-1.4,1-1.4,2.5c0,1.5,0.4,2.5,1.4,2.5
		C129.6,33.8,130.1,32.8,130.1,31.3z"/>
	<path class="st0" d="M133,34.8l0.1-1.4c0.4,0.2,1.1,0.4,1.7,0.4c0.8,0,1.4-0.4,1.4-1c0-0.8-0.6-0.9-1.3-0.9c-0.1,0-0.4,0-0.7,0
		v-1.3c0.3,0,0.5,0,0.6,0c0.6,0,1.3-0.2,1.3-0.9c0-0.6-0.6-0.8-1.2-0.8c-0.6,0-1.4,0.2-1.8,0.5l-0.1-1.4c0.4-0.2,1.3-0.4,2.3-0.4
		c1.5,0,2.5,0.5,2.5,2c0,0.9-0.5,1.4-1.2,1.7c0.8,0.2,1.3,0.9,1.3,1.8c0,1.5-1.2,2.2-2.7,2.2C134.4,35.1,133.6,35,133,34.8z"/>
	<path class="st0" d="M141,32.1c-1.2-0.5-1.4-1.6-1.4-2.2c0-1.6,0.9-2.3,2.9-2.3h2.7V35h-1.7v-2.6h-0.8l-1.4,2.6h-2L141,32.1z
		 M143.5,31.1v-2.2h-1c-0.8,0-1.2,0.3-1.2,1c0,0.7,0.5,1.1,1.2,1.1H143.5z"/>
	<path class="st0" d="M147.4,27.6h1.7v2.8c0,0.7,0,1.7-0.1,2.3l2.3-5.1h2V35h-1.7v-3c0-0.8,0-1.4,0.1-2l-2.3,5h-2V27.6z M148.2,24.9
		l0.7-0.4c0.2,0.5,0.6,1,1.4,1c0.7,0,1.2-0.5,1.4-1l0.7,0.4c-0.2,0.8-0.9,1.8-2.1,1.8C149.1,26.7,148.5,25.7,148.2,24.9z"/>
	<path class="st0" d="M155,31.3c0-2.2,1.3-3.8,3.6-3.8c0.4,0,0.8,0,1.2,0.1l-0.1,1.4c-0.3-0.1-0.5-0.1-0.8-0.1c-1.2,0-1.9,1-1.9,2.4
		c0,1.4,0.7,2.4,2,2.4c0.3,0,0.6,0,0.8-0.1l0.1,1.4c-0.4,0.1-0.8,0.2-1.3,0.2C156.4,35.1,155,33.6,155,31.3z"/>
	<path class="st0" d="M162.7,29h-2v-1.4h5.7V29h-1.9V35h-1.8V29z"/>
	<path class="st0" d="M167.8,27.6h3.2c1.4,0,2.3,0.7,2.3,1.9c0,0.9-0.6,1.5-1.3,1.7c0.8,0.1,1.5,0.8,1.5,1.7c0,1.4-1,2.1-2.5,2.1
		h-3.2V27.6z M170.7,30.6c0.6,0,0.9-0.3,0.9-0.9c0-0.5-0.3-0.8-0.9-0.8h-1.1v1.7H170.7z M170.8,33.7c0.6,0,0.9-0.3,0.9-0.9
		c0-0.6-0.3-1-0.9-1h-1.2v1.9H170.8z"/>
	<path class="st0" d="M175,31.3c0-2.3,1.3-3.8,3.2-3.8c2,0,2.9,1.3,2.9,3.7c0,0.2,0,0.5,0,0.7h-4.3c0,1.1,0.8,2,2.1,2
		c0.6,0,1.1-0.1,1.7-0.4l0.1,1.4c-0.5,0.2-1.2,0.3-1.9,0.3C176.2,35.2,175,33.7,175,31.3z M179.4,30.6c0-1.2-0.4-2-1.3-2
		c-0.8,0-1.4,0.8-1.5,2H179.4z"/>
	<path class="st0" d="M182.8,27.6h1.8v2.8h2.3v-2.8h1.8V35h-1.8v-3.1h-2.3V35h-1.8V27.6z"/>
	<path class="st0" d="M190.8,27.6h1.8v2.8h2.3v-2.8h1.8V35h-1.8v-3.1h-2.3V35h-1.8V27.6z"/>
	<path class="st0" d="M198.5,32.8c0-1.6,1.2-2.5,3.3-2.5c0.2,0,0.6,0,0.9,0v-0.1c0-1.1-0.5-1.6-1.5-1.6c-0.7,0-1.4,0.2-2,0.6
		l-0.1-1.4c0.7-0.3,1.6-0.5,2.3-0.5c2.1,0,2.9,1.2,2.9,3c0,0.7,0,1.8,0,2.3c0,0.9,0,1.7,0.1,2.3h-1.5c0-0.1,0-0.4,0-0.6
		c0-0.2,0-0.4,0-0.6h0c-0.4,0.8-1.1,1.3-2.1,1.3C199.3,35.1,198.5,34.2,198.5,32.8z M202.8,31.5c-0.1,0-0.3,0-0.6,0
		c-1.4,0-2.1,0.4-2.1,1.3c0,0.6,0.4,1.1,1.1,1.1C202.3,33.9,202.8,32.9,202.8,31.5z"/>
	<path class="st0" d="M207.6,32.1c-1.2-0.5-1.4-1.6-1.4-2.2c0-1.6,0.9-2.3,2.9-2.3h2.7V35H210v-2.6h-0.8l-1.4,2.6h-2L207.6,32.1z
		 M210.1,31.1v-2.2h-1c-0.8,0-1.2,0.3-1.2,1c0,0.7,0.5,1.1,1.2,1.1H210.1z"/>
	<path class="st0" d="M217,31.3c0-2.3,1.2-3.9,3.2-3.9c2,0,3.2,1.6,3.2,3.9c0,2.3-1.2,3.9-3.2,3.9C218.1,35.2,217,33.6,217,31.3z
		 M221.5,31.3c0-1.5-0.5-2.5-1.4-2.5c-0.9,0-1.4,1-1.4,2.5c0,1.5,0.4,2.5,1.4,2.5C221.1,33.8,221.5,32.8,221.5,31.3z"/>
	<path class="st0" d="M225.1,29.8c0-0.7,0-1.6-0.1-2.1h1.7c0,0.3,0.1,0.8,0.1,1.1h0c0.3-0.8,1-1.3,1.9-1.3c1.7,0,2.7,1.6,2.7,3.8
		c0,2.2-1,3.9-2.7,3.9c-0.9,0-1.5-0.4-1.9-1.1h0c0,0.4,0,1.2,0,1.7V38h-1.8V29.8z M229.6,31.3c0-1.4-0.5-2.5-1.3-2.5
		c-0.9,0-1.4,1.1-1.4,2.5c0,1.4,0.5,2.5,1.4,2.5C229.1,33.8,229.6,32.7,229.6,31.3z"/>
	<path class="st0" d="M233.2,27.6h4.5V29H235V35h-1.8V27.6z"/>
	<path class="st0" d="M238.5,32.8c0-1.6,1.2-2.5,3.3-2.5c0.2,0,0.6,0,0.9,0v-0.1c0-1.1-0.5-1.6-1.5-1.6c-0.7,0-1.4,0.2-2,0.6
		l-0.1-1.4c0.7-0.3,1.6-0.5,2.3-0.5c2.1,0,2.9,1.2,2.9,3c0,0.7,0,1.8,0,2.3c0,0.9,0,1.7,0.1,2.3H243c0-0.1,0-0.4,0-0.6
		c0-0.2,0-0.4,0-0.6h0c-0.4,0.8-1.1,1.3-2.1,1.3C239.4,35.1,238.5,34.2,238.5,32.8z M242.8,31.5c-0.1,0-0.3,0-0.6,0
		c-1.4,0-2.1,0.4-2.1,1.3c0,0.6,0.4,1.1,1.1,1.1C242.4,33.9,242.8,32.9,242.8,31.5z"/>
	<path class="st0" d="M246.4,27.6h1.8v2.8h2.3v-2.8h1.8V35h-1.8v-3.1h-2.3V35h-1.8V27.6z"/>
	<path class="st0" d="M254.4,27.6h1.7v2.8c0,0.7,0,1.7-0.1,2.3l2.3-5.1h2V35h-1.7v-3c0-0.8,0-1.4,0.1-2l-2.3,5h-2V27.6z"/>
	<path class="st0" d="M262,34.8l0.1-1.4c0.4,0.2,1.1,0.4,1.7,0.4c0.8,0,1.4-0.4,1.4-1c0-0.8-0.6-0.9-1.3-0.9c-0.1,0-0.4,0-0.7,0
		v-1.3c0.3,0,0.5,0,0.6,0c0.6,0,1.3-0.2,1.3-0.9c0-0.6-0.6-0.8-1.2-0.8c-0.6,0-1.4,0.2-1.8,0.5l-0.1-1.4c0.4-0.2,1.3-0.4,2.3-0.4
		c1.5,0,2.5,0.5,2.5,2c0,0.9-0.5,1.4-1.2,1.7c0.8,0.2,1.3,0.9,1.3,1.8c0,1.5-1.2,2.2-2.7,2.2C263.4,35.1,262.6,35,262,34.8z"/>
	<path class="st0" d="M268.5,32.8c0-1.6,1.2-2.5,3.3-2.5c0.2,0,0.6,0,0.9,0v-0.1c0-1.1-0.5-1.6-1.5-1.6c-0.7,0-1.4,0.2-2,0.6
		l-0.1-1.4c0.7-0.3,1.6-0.5,2.3-0.5c2.1,0,2.9,1.2,2.9,3c0,0.7,0,1.8,0,2.3c0,0.9,0,1.7,0.1,2.3h-1.5c0-0.1,0-0.4,0-0.6
		c0-0.2,0-0.4,0-0.6h0c-0.4,0.8-1.1,1.3-2.1,1.3C269.3,35.1,268.5,34.2,268.5,32.8z M272.8,31.5c-0.1,0-0.3,0-0.6,0
		c-1.4,0-2.1,0.4-2.1,1.3c0,0.6,0.4,1.1,1.1,1.1C272.3,33.9,272.8,32.9,272.8,31.5z"/>
	<path class="st0" d="M281.5,35h-5v-7.3h1.8v5.9h2.2v-5.9h1.8v5.9h0.9v3.3h-1.6V35z"/>
	<path class="st0" d="M284.4,27.6h1.7v2.8c0,0.7,0,1.7-0.1,2.3l2.3-5.1h2V35h-1.7v-3c0-0.8,0-1.4,0.1-2l-2.3,5h-2V27.6z"/>
	<path class="st0" d="M293.7,32.1c-1.2-0.5-1.4-1.6-1.4-2.2c0-1.6,0.9-2.3,2.9-2.3h2.7V35h-1.7v-2.6h-0.8L294,35h-2L293.7,32.1z
		 M296.2,31.1v-2.2h-1c-0.8,0-1.2,0.3-1.2,1c0,0.7,0.5,1.1,1.2,1.1H296.2z"/>
	<path class="st0" d="M68.9,46.2c0-3.2,1.5-5.2,4.1-5.2c2.5,0,4,2.1,4,5.1c0,3.2-1.4,5.2-4,5.2C70.4,51.3,68.9,49.3,68.9,46.2z
		 M75.1,46.2c0-2.4-0.8-3.8-2.1-3.8c-1.3,0-2.1,1.4-2.1,3.7c0,2.3,0.8,3.7,2.1,3.7C74.3,49.8,75.1,48.4,75.1,46.2z"/>
	<path class="st0" d="M78.6,46.9c0-2.1,0.2-4,1.2-5.2c1.3-1.4,3.4-0.8,4.9-1.3L84.6,42c-1.1,0.4-2.8,0-3.7,0.7
		c-0.8,0.6-1,1.6-1.1,2.8c0.2-0.9,1.1-1.7,2.3-1.7c1.8,0,2.9,1.4,2.9,3.7c0,2-1,3.8-3.2,3.8C79.4,51.3,78.6,49.3,78.6,46.9z
		 M83.2,47.5c0-1.3-0.4-2.4-1.4-2.4c-1,0-1.3,1-1.3,2.4c0,1.4,0.4,2.4,1.3,2.4C82.8,49.9,83.2,48.9,83.2,47.5z"/>
	<path class="st0" d="M87.5,45.2h-1.6v-1.4h3.4v2.7h1.4c1.5,0,2.5,0.8,2.5,2.3c0,1.6-1,2.3-2.8,2.3h-2.8V45.2z M90.4,49.9
		c0.7,0,1.1-0.4,1.1-1.1c0-0.7-0.4-1.1-1.1-1.1h-1.2v2.1H90.4z"/>
	<path class="st0" d="M94.4,47.4c0-2.3,1.3-3.8,3.2-3.8c2,0,2.9,1.3,2.9,3.7c0,0.2,0,0.5,0,0.7h-4.3c0,1.1,0.8,2,2.1,2
		c0.6,0,1.1-0.1,1.7-0.4L100,51c-0.5,0.2-1.2,0.3-1.9,0.3C95.7,51.3,94.4,49.8,94.4,47.4z M98.9,46.8c0-1.2-0.4-2-1.3-2
		c-0.8,0-1.4,0.8-1.5,2H98.9z"/>
	<path class="st0" d="M101.5,49.7h0.7c0.5-0.9,0.7-2.1,0.7-3.8v-2.2h5.4v5.9h0.9V53h-1.6v-1.9h-4.5V53h-1.6V49.7z M106.5,49.7v-4.5
		h-1.9v1.1c0,1.3-0.1,2.6-0.6,3.5H106.5z"/>
	<path class="st0" d="M110.5,43.8h1.7v2.8c0,0.7,0,1.7-0.1,2.3l2.3-5.1h2v7.3h-1.7v-3c0-0.8,0-1.4,0.1-2l-2.3,5h-2V43.8z"/>
	<path class="st0" d="M118.6,43.8h1.8v2.8h2.3v-2.8h1.8v7.3h-1.8V48h-2.3v3.1h-1.8V43.8z"/>
	<path class="st0" d="M126.2,47.4c0-2.3,1.3-3.8,3.2-3.8c2,0,2.9,1.3,2.9,3.7c0,0.2,0,0.5,0,0.7h-4.3c0,1.1,0.8,2,2.1,2
		c0.6,0,1.1-0.1,1.7-0.4l0.1,1.4c-0.5,0.2-1.2,0.3-1.9,0.3C127.5,51.3,126.2,49.8,126.2,47.4z M130.7,46.8c0-1.2-0.4-2-1.3-2
		c-0.8,0-1.4,0.8-1.5,2H130.7z"/>
	<path class="st0" d="M134.1,43.8h1.8v2.8h2.3v-2.8h1.8v7.3h-1.8V48h-2.3v3.1h-1.8V43.8z"/>
	<path class="st0" d="M142.1,43.8h1.8v2.8h2.3v-2.8h1.8v7.3h-1.8V48h-2.3v3.1h-1.8V43.8z"/>
	<path class="st0" d="M150,43.8h1.8v2.7h1.4c1.5,0,2.5,0.8,2.5,2.3c0,1.6-1,2.3-2.8,2.3H150V43.8z M152.9,49.9
		c0.7,0,1.1-0.4,1.1-1.1c0-0.7-0.4-1.1-1.1-1.1h-1.2v2.1H152.9z M156.5,43.8h1.8v7.3h-1.8V43.8z"/>
	<path class="st0" d="M161.9,47.2l-2-3.5h2c0.7,1.6,1,2.2,1.2,2.6h0c0.2-0.4,0.4-1,1.2-2.6h1.8l-2,3.5l2.1,3.9h-2
		c-0.9-1.8-1.2-2.5-1.3-2.8h0c-0.1,0.4-0.4,1.1-1.3,2.8h-1.9L161.9,47.2z"/>
	<path class="st0" d="M171.1,41.1h1.8v4.1h3v-4.1h1.8v10H176v-4.4h-3v4.4h-1.8V41.1z"/>
	<path class="st0" d="M179.8,49c0-1.6,1.2-2.5,3.3-2.5c0.2,0,0.6,0,0.9,0v-0.1c0-1.1-0.5-1.6-1.5-1.6c-0.7,0-1.4,0.2-2,0.6l-0.1-1.4
		c0.7-0.3,1.6-0.5,2.3-0.5c2.1,0,2.9,1.2,2.9,3c0,0.7,0,1.8,0,2.3c0,0.9,0,1.7,0.1,2.3h-1.5c0-0.1,0-0.4,0-0.6c0-0.2,0-0.4,0-0.6h0
		c-0.4,0.8-1.1,1.3-2.1,1.3C180.6,51.2,179.8,50.3,179.8,49z M184,47.6c-0.1,0-0.3,0-0.6,0c-1.4,0-2.1,0.4-2.1,1.3
		c0,0.6,0.4,1.1,1.1,1.1C183.6,50,184,49,184,47.6z"/>
	<path class="st0" d="M192.7,51.1h-5v-7.3h1.8v5.9h2.2v-5.9h1.8v5.9h0.9V53h-1.6V51.1z"/>
	<path class="st0" d="M195.7,43.8h1.7v2.8c0,0.7,0,1.7-0.1,2.3l2.3-5.1h2v7.3h-1.7v-3c0-0.8,0-1.4,0.1-2l-2.3,5h-2V43.8z"/>
	<path class="st0" d="M203.8,43.8h1.7v2.8c0,0.7,0,1.7-0.1,2.3l2.3-5.1h2v7.3H208v-3c0-0.8,0-1.4,0.1-2l-2.3,5h-2V43.8z M204.6,41.1
		l0.7-0.4c0.2,0.5,0.6,1,1.4,1c0.7,0,1.2-0.5,1.4-1l0.7,0.4c-0.2,0.8-0.9,1.8-2.1,1.8C205.5,42.8,204.9,41.8,204.6,41.1z"/>
</g>
</svg>
