<?xml version="1.0" encoding="utf-8"?>
<!-- Generator: Adobe Illustrator 21.1.0, SVG Export Plug-In . SVG Version: 6.00 Build 0)  -->
<svg version="1.1" id="Layer_2" xmlns="http://www.w3.org/2000/svg" xmlns:xlink="http://www.w3.org/1999/xlink" x="0px" y="0px"
	 viewBox="0 0 295.5 56.7" style="enable-background:new 0 0 295.5 56.7;" xml:space="preserve">
<style type="text/css">
	.st0{fill:#FFFFFF;}
</style>
<g>
	<path class="st0" d="M29.5,56.7C13.9,56.7,1.2,44,1.2,28.3C1.2,12.7,13.9,0,29.5,0c15.6,0,28.3,12.7,28.3,28.3
		C57.9,44,45.2,56.7,29.5,56.7z M29.4,17.2c0,0,2.3,2.4,2.3,4.4c0,2.1-1.6,2.6-2.2,2.6c0,0-0.1,0-0.1,0h0c0,0-0.1,0-0.1,0
		c-0.6,0-2.2-0.5-2.2-2.6C27.1,19.6,29.4,17.2,29.4,17.2z M8.1,29.9h2.6v-4.8H15v-2h-4.3v-2.7h4.5v-2H8.1V29.9z M31.8,17.5h2.7
		L31.3,6.1h-3.5l-3.3,11.4h2.5l0.7-2.6h3.3L31.8,17.5z M30.6,13h-2.4l1.1-5h0.2L30.6,13z M42.6,24.2c0,3.4,1.6,5.9,4.8,5.9
		c3.3,0,4.9-2.6,4.9-5.9c0-3.4-1.6-5.9-4.9-5.9C44.2,18.3,42.6,20.9,42.6,24.2z M45.4,24.2c0-2.2,0.5-4,2.1-4c1.6,0,2.1,1.8,2.1,4
		c0,2.2-0.6,4-2.1,4C45.9,28.2,45.4,26.4,45.4,24.2z M28.3,53.5c0.2-1.1,0.3-2.9,0.3-5c0-0.6,0-0.2,0-0.4c0-2.9-0.1-3.9-2.1-4.6
		c-3-1-4.3-4.4-3.6-8.6L12.9,9.4c-5.2,4.6-8.6,11.4-8.6,18.9C4.3,41.8,15,52.9,28.3,53.5z M29.5,37.2c-4-0.9-5.5-4.6-5.5-7.8
		L15.2,7.6C14.6,8,14,8.5,13.5,8.9c1.9,4.6,10.7,25.3,10.7,25.3c1.5,3.7,4.4,2.5,5,5.6c0.2,0.7,0.2,1.1,0.2,1.1h0.3
		c0,0,0-0.3,0.2-1.1c0.7-3.1,3.5-1.8,5-5.6c0,0,8.7-20.7,10.7-25.3C45,8.5,44.5,8,43.9,7.6l-8.8,21.7C35.1,32.6,33.6,36.2,29.5,37.2
		L29.5,37.2z M29.5,30.6c-1.7-0.4-3.8-2.1-4.1-4.2c-0.1-0.8-0.2-1.1-0.1-2.7L17.6,6.1c-0.6,0.3-1.2,0.7-1.8,1.1
		c2.3,5.2,9.4,21.1,9.4,21.1c1.1,2.4,3.1,2.4,3.8,3.8c0.4,0.8,0.4,1.6,0.5,1.6h0.3c0-0.1,0-0.8,0.5-1.6c0.7-1.4,2.6-1.4,3.8-3.8
		c0,0,7.1-15.9,9.4-21.1c-0.6-0.4-1.2-0.8-1.8-1.1l-7.7,17.5c0.1,1.6,0,1.9-0.1,2.7C33.4,28.5,31.3,30.2,29.5,30.6L29.5,30.6z
		 M29.6,27.6l0.1-1c0.5-2.2,2.1-1.9,3.2-4.1c0,0,0,0,0,0c0-0.1,5.5-11.8,7.8-16.7c-3.4-1.7-7.2-2.6-11.2-2.6c-4,0-7.9,1-11.2,2.6
		c2.3,4.9,7.8,16.7,7.8,16.7c0,0,0,0,0,0c1.1,2.2,2.7,1.9,3.2,4.1l0.1,1H29.6z M54.7,28.3c0-7.5-3.3-14.3-8.6-18.9L36.1,35.1
		c0.7,4.2-0.6,7.6-3.6,8.6c-2,0.6-2.1,1.6-2.1,4.6c0,0.2,0-0.2,0,0.4c0,2.1,0.2,3.9,0.3,5C44.1,52.9,54.7,41.8,54.7,28.3z
		 M12.3,35.8c0,0,0.4,0.8,0.7,1.4c0.3,0.6,0.7,1.2,0.7,1.2L13,38.8c0,0-0.5-0.8-1-1.8c-0.1,0.1-0.9,0.5-1.1,0.5
		c0.1,0.1,0.9,1.7,0.9,1.7l-0.7,0.4c0,0-0.8-1.6-0.9-1.7c-0.1,0.1-1.9,1-1.9,1L8,38L12.3,35.8L12.3,35.8z M14.9,40.1l0.6,0.7
		l-3.7,3.1l-0.6-0.7L14.9,40.1L14.9,40.1z M18.4,43.3l0.7,0.5l-0.9,5.1l-0.8-0.5c0,0,0.2-1,0.2-1.1c0,0-0.5-0.3-1-0.7
		c-0.5-0.3-0.9-0.7-1-0.8c-0.1,0.1-1,0.6-1,0.6l-0.7-0.6L18.4,43.3L18.4,43.3z M16.2,45.5c0.1,0.1,0.4,0.3,0.7,0.6
		c0.3,0.2,0.7,0.4,0.8,0.5c0-0.2,0.4-1.9,0.5-2.2C17.9,44.5,16.4,45.4,16.2,45.5z M21.4,45.2c0,0,0.8,0.4,1.9,0.8
		c0.8,0.3,1.4,0.5,2,0.6l-0.2,0.7c0,0-0.6-0.1-1.6-0.4c-0.1,0.2-1.3,3.8-1.3,3.8l-0.9-0.3c0,0,1.3-3.6,1.3-3.8
		c-0.9-0.3-1.5-0.7-1.5-0.7L21.4,45.2z M36.6,46.2c0.3,0.2,0.5,0.5,0.7,0.9c0.1,0.2,0.1,0.3,0.1,0.5c0,0.7-0.5,1.2-1.3,1.5
		c0,0-0.4,0.1-0.6,0.2c0,0.2,0.6,1.8,0.6,1.8l-0.8,0.2l-1.4-4.6l1.3-0.4C35.6,46,36.2,46,36.6,46.2z M34.8,47c0,0.1,0.4,1.3,0.4,1.4
		c0.2-0.1,0.6-0.2,0.6-0.2c0.1,0,0.4-0.2,0.6-0.4c0-0.1,0.1-0.2,0.1-0.3c0-0.1,0-0.2,0-0.2c-0.1-0.2-0.2-0.3-0.3-0.4
		c-0.3-0.1-0.6-0.1-0.8,0C35.2,46.9,34.9,47,34.8,47z M39.4,44.2l4.2,3l-0.7,0.5c0,0-0.8-0.6-0.9-0.7c0,0-0.5,0.3-0.9,0.6
		c-0.4,0.3-0.9,0.5-1,0.5c0,0.1,0.2,1.1,0.2,1.1l-0.8,0.4l-0.7-5.1L39.4,44.2z M39.9,47.4c0.1-0.1,0.4-0.2,0.8-0.4
		c0.3-0.2,0.5-0.3,0.6-0.4c-0.2-0.1-1.5-1.1-1.7-1.3C39.6,45.6,39.9,47.2,39.9,47.4z M44.2,40l3.6,3.2L47.2,44c0,0-3.4-1-3.9-1.1
		c0.4,0.4,2.5,2.6,2.5,2.6L45.1,46l-3.4-3.5l0.8-0.7c0,0,3.3,1,3.8,1.1c-0.4-0.4-2.7-2.3-2.7-2.3L44.2,40z M45.8,37.5L50,40
		l-0.4,0.7l-4.2-2.4L45.8,37.5z M47.7,33.5l0.7,0.4L48.3,34c-0.2,0.3-0.3,0.4-0.4,0.8c-0.1,0.1-0.1,0.4,0,0.6
		c0.1,0.1,0.1,0.2,0.3,0.2c0.3,0.1,0.6-0.2,0.9-0.5c0.4-0.5,1-1,1.9-0.7c0.9,0.3,1.2,1.1,0.8,2.2c-0.1,0.3-0.3,0.6-0.5,0.9l0,0.1
		l-0.7-0.3l0.1-0.1c0.1-0.1,0.4-0.5,0.5-0.8c0.1-0.3,0.1-0.9-0.4-1c-0.4-0.1-0.7,0.2-1.1,0.5c-0.4,0.4-0.9,1-1.7,0.7
		c-0.4-0.1-0.6-0.3-0.8-0.6c-0.2-0.4-0.2-0.8,0-1.3C47.2,34.2,47.4,33.8,47.7,33.5L47.7,33.5z"/>
</g>
<g>
	<path class="st0" d="M68.6,17.1h6.1v1.3h-0.8v8l1.1-0.2c0,0.5,0,1,0,1.4l-1,0.2v2.8h-1.3V28c-1.3,0.2-2.5,0.5-3.9,0.7l-0.2-1.5
		l0.9-0.1v-8.7h-0.8V17.1z M70.7,20.4h1.8v-1.9h-1.8V20.4z M70.7,23.5h1.8v-1.9h-1.8V23.5z M72.5,26.6v-1.9h-1.8v2.2L72.5,26.6z
		 M75,19.3h3.7c0.6-1.1,1.2-2.1,1.7-3.1l1.5,0.6c-0.5,0.8-1,1.7-1.6,2.5h2v1.4h-3.1v1.9c0,0.2,0,0.3,0,0.4h3.5v1.4h-3.4
		c0.7,2.3,1.5,3.4,3.6,4.6c-0.3,0.5-0.6,0.9-0.9,1.5c-1.9-1.3-2.9-2.5-3.5-4.4c-0.5,1.8-1.4,2.9-3.5,4.5c-0.2-0.3-0.7-0.9-1-1.3
		c2.3-1.5,3.3-2.8,3.6-4.8h-3V23h3.1c0,0,0-0.1,0-0.1l0-2.2H75V19.3z M75.4,16.9l1.3-0.6c0.5,0.7,1.1,1.6,1.5,2.3l-1.3,0.7
		C76.4,18.4,75.9,17.6,75.4,16.9z"/>
	<path class="st0" d="M98.1,21.4v1.1H90v-1c-0.7,0.5-1.5,0.9-2.3,1.4c-0.2-0.4-0.6-1-0.9-1.5c3.3-1.6,5.5-3.4,6.7-5.4l1.9,0.2
		L95,16.8c1.5,1.8,3.5,3.3,6.3,4.4c-0.3,0.5-0.6,1-0.9,1.5C99.5,22.3,98.8,21.9,98.1,21.4z M88.7,24.1h10.7v6.5h-1.6v-0.8h-7.4v0.8
		h-1.6V24.1z M90.3,28.3h7.4v-2.8h-7.4V28.3z M90.6,21.1h6.9c-1.4-0.9-2.5-1.9-3.4-3.1C93.1,19.1,92,20.1,90.6,21.1z"/>
	<path class="st0" d="M105.8,16.8h13.1v13.8h-1.6v-0.7h-9.9v0.7h-1.6V16.8z M107.4,28.5h9.9V18.2h-9.9V28.5z M108.3,19.4h8.1v1.3
		H113v1.6h3.1v1.3H113v2.3h2.1c-0.5-0.6-1-1.1-1.4-1.5l0.8-0.7c0.5,0.4,1,0.9,1.5,1.4l-0.9,0.8h1.5v1.3h-8.5v-1.3h3.4v-2.3h-3v-1.3
		h3v-1.6h-3.2V19.4z"/>
	<path class="st0" d="M123.4,17.7l0.9-0.3c0.4,1,0.7,2,1,2.9l-1,0.4C124,19.6,123.8,18.8,123.4,17.7z M126.9,25.1v5.5h-1.4v-5
		c-0.4,1.1-1,2.1-1.7,3c-0.1-0.6-0.4-1.3-0.5-1.7c0.9-1.2,1.5-2.4,2.1-4.1h-1.8v-1.3h1.9v-5.2h1.4v5.2h1.8v1.3h-1.8v1.5l0.6-0.5
		c0.6,0.6,1.2,1.3,1.7,2l-1,0.9C127.8,26.1,127.4,25.6,126.9,25.1z M127.1,20.3c0.4-1.1,0.7-1.9,1.1-2.9l1,0.3c-0.3,0.9-0.7,2-1.1,3
		L127.1,20.3z M132,24.5h-1.1v4c0.7-0.3,1.7-0.6,2.5-0.9c0,0.4,0,1.1,0,1.5l-2.6,1c-0.4,0.2-0.8,0.4-1.1,0.5l-0.8-1.2
		c0.3-0.3,0.5-0.7,0.5-1.2V17.7h3c-0.1-0.5-0.3-0.9-0.4-1.3l1.7-0.2c0.1,0.5,0.3,1,0.4,1.5h2.9v6.8h-3.5c0.3,0.7,0.5,1.3,0.9,1.9
		c0.8-0.6,1.7-1.2,2.5-1.8l0.9,1.1c-0.8,0.5-1.7,1.1-2.6,1.7c0.7,0.6,1.6,1.2,2.8,1.7c-0.3,0.5-0.6,1-0.8,1.4
		C134.2,29,132.9,27.6,132,24.5z M130.8,20.5h4.7V19h-4.7V20.5z M135.5,23.2v-1.5h-4.7v1.5H135.5z"/>
	<path class="st0" d="M148.9,28.1c0,0.5,0,1,0,1.5c-1.3,0.2-2.7,0.5-3.5,0.7c-0.4,0.1-0.8,0.2-1.2,0.4l-0.8-1.2
		c0.4-0.3,0.6-0.6,0.6-1.3v-7c-0.5,0.2-1,0.4-1.5,0.6c-0.2-0.4-0.5-0.9-0.8-1.4c3.5-1.3,5.6-2.6,6.9-4.4l1.9,0.1l-0.4,0.5
		c1.7,1.7,3.5,2.6,6.3,3.5c-0.2,0.5-0.5,1-0.7,1.4c-0.6-0.2-1.1-0.4-1.6-0.6v4.9l0.9,0.9c-0.8,0.4-1.6,0.8-2.4,1.2
		c1,0.4,2,0.7,3,1.1l-0.7,1.3C152.9,29.7,150.9,28.9,148.9,28.1z M149.5,20.5h3.5c-1.5-0.7-2.6-1.6-3.8-2.8c-1.1,1.1-2.3,2-3.9,2.8
		h3.4c-0.2-0.4-0.4-1-0.6-1.5l1.5-0.2c0.2,0.6,0.4,1.1,0.6,1.6L149.5,20.5z M145.5,22.8h7v-1.1h-7V22.8z M145.5,25h7v-1.1h-7V25z
		 M148.9,28.1c-0.6-0.2-1.3-0.5-1.9-0.7l0.7-1.1c1.1,0.4,2.2,0.8,3.3,1.2c0.9-0.4,1.6-0.9,2.3-1.3h-7.8v2.7
		C146.5,28.6,147.6,28.4,148.9,28.1z"/>
	<path class="st0" d="M163.3,29.2c1.8-0.6,3.2-1.3,4.4-2.1c-1.2-1.3-2.2-2.8-3-4.7c-0.4,3.4-1.2,5.5-3.4,8.1
		c-0.4-0.4-0.8-0.9-1.2-1.3c2.2-2.6,3-4.5,3.2-8.9c0-0.5,0-1.2,0.1-1.8H161V17h11v1.6l-1.6,2.5h3v1.4c-0.9,1.9-1.9,3.3-3.2,4.5
		c1.2,0.8,2.7,1.4,4.4,1.8l-0.9,1.6c-1.9-0.6-3.5-1.3-4.8-2.3c-1.3,0.9-2.8,1.7-4.7,2.5C164.1,30.4,163.6,29.6,163.3,29.2z
		 M164.9,20.4l0.5-0.4c0.9,2.7,2,4.6,3.6,6c1.1-1,2-2.2,2.6-3.5h-3.1v-1.4l1.7-2.6h-5.1C164.9,19.2,164.9,19.8,164.9,20.4z"/>
	<path class="st0" d="M75.1,40c-0.5,0.9-1.1,1.8-1.9,2.6h0.6v3.7c0.7-0.2,2.3-0.9,3.3-1.3c0,0.6,0,1.1,0.1,1.7
		c-1.1,0.4-2.6,1-3.6,1.4c-0.5,0.2-0.8,0.4-1.1,0.6l-1-1.3c0.4-0.4,0.6-0.8,0.6-1.6v-2.2c-0.9,0.8-1.9,1.6-3.1,2.4
		c-0.2-0.5-0.5-1-0.8-1.5c3.4-2,5.2-4.2,6.1-6.8H71v2.2h-1.6v-3.6h5.5c0.2-0.6,0.2-1.2,0.3-1.9h1.7c-0.1,0.6-0.2,1.3-0.4,1.9h5.7
		v3.2h-1.6v-1.7h-4.5c0,0.1-0.1,0.2-0.1,0.3c0.4,1.5,0.9,2.8,1.6,3.9c1-0.6,2.1-1.4,3-2.1l1.1,1.2c-0.9,0.6-2,1.4-3.2,2.1
		c1.1,1.2,2.5,2.2,4.5,3.1c-0.4,0.6-0.8,1.1-1,1.5C78.1,45.5,76.3,43.5,75.1,40z"/>
	<path class="st0" d="M86.9,46.3h4.3V34.5h1.6v11.8h2.3V34.5h1.6v11.8h4.4v1.6H86.9V46.3z M87.3,37.6l1.4-0.5c0.8,2,1.6,4.2,2.3,6.2
		l-1.5,0.5C88.8,41.8,88,39.6,87.3,37.6z M97,43.1c0.7-1.5,1.7-4,2.4-6l1.5,0.5c-0.8,2.2-1.7,4.5-2.4,6.1L97,43.1z"/>
	<path class="st0" d="M105.3,43c0.4-0.2,0.7-0.5,1.1-1c0.4-0.5,0.9-1.2,1.4-1.9c-0.9,0-1.6,0.1-2.2,0.2l-0.4-1.4
		c0.3-0.2,0.5-0.5,0.8-1.1c0.6-0.9,1.4-2.3,2-3.6l1.6,0.5c-0.9,1.4-1.9,2.9-2.7,4.1c0.5,0,1.2,0,1.7-0.1c0.3-0.5,0.6-0.9,0.8-1.4
		l1.4,0.6c-1.1,1.7-2.5,3.5-3.5,4.8c0.9-0.1,1.9-0.2,2.8-0.3c0,0.5-0.1,0.9-0.1,1.4c-2.2,0.2-3.4,0.3-4.4,0.5L105.3,43z M105.2,46.1
		c1.5-0.2,3.2-0.4,5.1-0.7c0,0.4-0.1,0.8-0.1,1.3h1V35h7.3v11.6h1.1v1.5h-9.8v-1.1c-1.4,0.2-3,0.4-4.5,0.7L105.2,46.1z M112.8,38.9
		h4.1v-2.5h-4.1V38.9z M112.8,42.7h4.1v-2.5h-4.1V42.7z M112.8,46.6h4.1v-2.5h-4.1V46.6z"/>
	<path class="st0" d="M123.8,43c0.3-0.2,0.6-0.4,0.9-0.8c0.4-0.5,1-1.3,1.5-2.1c-1,0.1-1.7,0.1-2.2,0.2l-0.4-1.4
		c0.2-0.2,0.5-0.5,0.8-1.1c0.7-1,1.4-2.3,1.9-3.7l1.6,0.5c-0.9,1.5-1.8,2.9-2.6,4.1c0.5,0,1.1,0,1.7-0.1c0.3-0.5,0.5-0.9,0.8-1.4
		l1.4,0.6c-1.1,1.7-2.2,3.3-3.4,4.8l2.7-0.2c0,0.5-0.1,0.9-0.1,1.4c-2.1,0.2-3.2,0.3-4.2,0.4L123.8,43z M123.5,46.2
		c1.5-0.2,3.2-0.5,5-0.8c0,0.5,0,1,0,1.5c-1.6,0.2-3.3,0.5-4.7,0.8L123.5,46.2z M128.1,47.6c1.1-1.2,2.1-2.4,3.1-4l1.4,0.8
		c-1.1,1.6-2.1,2.9-3.1,4.2L128.1,47.6z M129.5,35.2h7.6v7.7h-7.6V35.2z M131.1,41.4h4.4v-4.8h-4.4V41.4z M133.8,44.4l1.3-0.8
		c1.1,1.4,2,2.6,2.9,3.9l-1.4,0.9C135.8,47.2,134.9,45.9,133.8,44.4z"/>
</g>
</svg>
