<?xml version="1.0" standalone="no"?>
<!DOCTYPE svg PUBLIC "-//W3C//DTD SVG 20010904//EN"
 "http://www.w3.org/TR/2001/REC-SVG-20010904/DTD/svg10.dtd">
<svg version="1.0" xmlns="http://www.w3.org/2000/svg"
 width="522.000000pt" height="522.000000pt" viewBox="0 0 522.000000 522.000000"
 preserveAspectRatio="xMidYMid meet">
<metadata>
Created by potrace 1.11, written by Peter Selinger 2001-2013
</metadata>
<g transform="translate(0.000000,522.000000) scale(0.100000,-0.100000)"
fill="#000000" stroke="none">
<path d="M2599 5166 c-2 -2 -62 -6 -133 -10 -71 -4 -132 -9 -135 -11 -3 -1
-28 -6 -56 -9 -133 -15 -307 -56 -466 -112 -150 -52 -362 -151 -441 -206 -14
-10 -28 -18 -31 -18 -6 0 -188 -120 -197 -130 -3 -3 -39 -32 -80 -65 -78 -62
-279 -257 -343 -335 -202 -243 -358 -520 -464 -825 -32 -95 -38 -111 -47 -152
-2 -10 -11 -45 -19 -78 -9 -33 -18 -73 -20 -90 -3 -16 -12 -73 -21 -126 -34
-202 -38 -481 -12 -689 7 -55 19 -136 22 -155 2 -11 7 -33 10 -50 31 -177 136
-480 224 -647 85 -163 123 -228 133 -228 4 0 7 -5 7 -11 0 -12 136 -202 180
-252 113 -129 212 -228 305 -307 28 -23 61 -52 75 -63 115 -98 443 -287 620
-357 103 -41 292 -99 370 -113 14 -3 36 -8 50 -11 79 -18 181 -33 305 -42 146
-11 397 -6 485 10 14 3 46 7 71 10 196 22 531 130 754 244 79 40 341 203 355
221 3 3 32 26 65 51 87 66 335 314 403 405 4 6 28 37 53 70 233 309 407 722
468 1110 18 120 20 138 27 235 11 148 6 381 -11 493 -3 17 -7 48 -10 67 -9 67
-14 96 -30 175 -21 97 -21 96 -28 115 -3 8 -13 42 -22 75 -23 83 -80 232 -123
323 -20 43 -36 79 -37 82 -4 19 -152 275 -176 304 -5 6 -46 60 -92 121 -161
215 -424 454 -667 605 -95 59 -331 180 -352 180 -8 0 -18 4 -23 9 -9 8 -171
69 -205 76 -8 2 -27 8 -42 14 -16 6 -28 8 -28 6 0 -2 -11 0 -25 5 -14 5 -36
12 -48 14 -12 3 -33 7 -47 10 -59 13 -128 26 -165 31 -23 3 -52 8 -65 10 -14
3 -88 8 -165 11 -77 3 -143 8 -146 10 -3 2 -8 2 -10 0z m276 -300 c17 -2 62
-9 101 -15 160 -24 398 -98 571 -177 72 -33 72 -22 8 -158 -23 -50 -52 -113
-65 -141 -56 -124 -285 -627 -315 -690 -52 -111 -91 -196 -115 -250 -81 -182
-111 -247 -121 -265 -4 -8 -17 -33 -28 -55 -23 -45 -69 -96 -159 -173 -69 -60
-110 -131 -118 -207 -7 -77 -18 -77 -28 -1 -11 79 -51 150 -114 204 -134 113
-146 131 -260 382 -44 96 -95 209 -115 250 -37 81 -79 172 -161 353 -13 28
-37 81 -54 117 -16 36 -42 92 -57 125 -15 33 -40 87 -55 120 -15 33 -39 85
-53 115 -76 164 -107 233 -107 238 0 17 282 131 386 157 189 48 262 62 369 71
39 3 72 8 74 10 5 5 377 -4 416 -10z m-1287 -303 c11 -27 53 -122 92 -213 40
-91 94 -217 122 -280 28 -63 68 -158 90 -210 22 -52 48 -113 58 -135 10 -22
57 -130 105 -240 48 -110 111 -255 140 -322 l54 -123 0 -107 c0 -60 2 -119 5
-133 3 -14 8 -38 12 -55 24 -117 152 -255 290 -313 60 -25 85 -22 165 18 118
58 231 190 253 295 4 17 9 41 12 55 3 14 5 74 5 133 0 93 3 116 24 160 13 29
65 149 116 267 50 118 102 238 114 265 13 28 57 131 100 230 42 99 86 200 97
225 11 25 24 54 28 65 5 11 20 45 33 75 14 30 52 118 85 195 33 77 65 152 72
167 l13 27 41 -23 c58 -32 116 -67 116 -71 0 -2 -5 -16 -12 -32 -6 -15 -12
-32 -14 -38 -2 -9 -187 -431 -219 -500 -7 -16 -30 -68 -50 -115 -89 -206 -120
-276 -158 -360 -14 -30 -68 -154 -120 -275 -53 -121 -107 -246 -121 -278 -14
-31 -26 -59 -26 -62 -1 -4 -63 -143 -90 -200 -5 -11 -14 -31 -20 -45 -32 -75
-75 -121 -194 -209 -51 -38 -102 -81 -114 -95 -25 -32 -58 -127 -61 -173 -1
-7 -5 -13 -10 -13 -9 0 -14 17 -25 76 -9 45 -51 116 -87 147 -20 18 -64 51
-96 72 -72 49 -130 112 -165 179 -15 28 -66 141 -113 251 -48 110 -100 228
-116 263 -16 35 -29 65 -29 67 0 3 -11 28 -24 57 -13 29 -54 123 -91 208 -37
85 -80 183 -96 218 -16 35 -29 65 -29 67 0 3 -11 28 -24 57 -13 29 -63 143
-111 253 -48 110 -96 220 -107 245 -11 25 -26 59 -33 75 -8 17 -25 56 -39 88
-14 32 -26 61 -26 66 0 9 96 71 109 71 5 0 14 7 21 15 19 23 25 19 48 -32z
m-69 -506 c158 -397 175 -438 205 -509 7 -18 26 -64 40 -103 15 -38 31 -79 36
-90 5 -11 23 -56 40 -100 18 -44 36 -89 41 -100 4 -11 40 -101 79 -200 40 -99
76 -189 80 -200 65 -145 89 -220 95 -291 6 -67 17 -141 28 -179 13 -43 23 -70
54 -137 20 -43 40 -78 45 -78 4 0 8 -6 8 -13 0 -7 8 -20 18 -29 9 -9 32 -32
51 -52 65 -69 210 -147 276 -149 17 0 58 10 91 23 238 95 381 321 399 632 2
33 42 146 129 365 70 175 131 327 136 338 5 11 50 124 100 250 50 127 95 239
100 250 5 11 53 128 105 260 52 132 100 248 105 257 6 10 10 23 10 29 0 5 11
35 25 65 14 30 25 58 25 62 0 5 9 27 20 50 11 22 20 46 20 52 0 18 16 11 84
-41 80 -61 80 -46 6 -214 -22 -51 -46 -109 -155 -375 -65 -157 -120 -289 -123
-295 -4 -5 -7 -14 -8 -20 -1 -5 -54 -136 -119 -290 -160 -385 -213 -514 -290
-700 -152 -369 -207 -495 -234 -536 -34 -52 -86 -109 -100 -109 -5 0 -11 -4
-13 -9 -1 -5 -41 -31 -88 -59 -121 -71 -150 -102 -179 -189 -11 -32 -21 -74
-23 -93 -3 -19 -10 -35 -16 -35 -7 0 -12 3 -13 7 -4 38 -33 136 -49 167 -21
41 -104 121 -126 121 -8 0 -14 3 -14 8 0 4 -17 15 -39 25 -60 29 -138 98 -179
161 -35 51 -102 202 -95 210 4 3 1 6 -5 6 -7 0 -12 6 -12 13 0 10 -54 145
-110 275 -6 12 -14 32 -19 45 -5 12 -25 60 -44 107 -20 47 -74 180 -122 295
-47 116 -92 224 -99 240 -8 17 -73 174 -146 350 -138 333 -141 342 -184 441
-14 34 -26 64 -26 66 0 3 -10 27 -22 54 -12 27 -23 51 -23 54 -2 6 -15 38 -55
131 -16 39 -30 77 -30 85 0 7 17 26 38 41 20 15 39 30 42 34 8 9 54 39 60 39
3 0 79 -186 169 -413z m-299 73 c34 -91 69 -178 75 -195 7 -16 54 -138 105
-270 101 -262 188 -487 256 -663 24 -62 44 -115 44 -118 0 -3 7 -22 16 -42 24
-56 23 -53 184 -472 39 -102 74 -194 79 -205 47 -105 60 -155 54 -207 -36
-338 65 -601 267 -695 25 -11 70 -32 101 -46 61 -27 98 -67 120 -132 22 -62
18 -558 -5 -700 -2 -11 -4 -23 -5 -28 -2 -11 -153 4 -301 29 -85 14 -269 68
-374 108 -120 47 -351 161 -376 186 -3 3 -43 31 -90 62 -47 31 -94 65 -105 75
-11 10 -42 36 -69 57 -106 85 -228 216 -369 396 -7 8 -28 40 -47 70 -19 30
-37 57 -40 60 -20 19 -143 262 -186 367 -33 83 -92 268 -98 308 -2 11 -10 54
-19 95 -30 142 -40 253 -41 440 0 203 14 341 55 519 6 25 12 54 14 64 9 40 66
208 98 288 72 176 204 407 304 530 116 143 273 304 283 292 4 -5 35 -82 70
-173z m2973 85 c38 -38 94 -101 125 -140 32 -38 59 -72 62 -75 13 -11 120
-169 120 -176 0 -4 6 -15 14 -23 58 -65 227 -461 260 -611 3 -14 11 -47 17
-75 6 -27 12 -59 14 -70 3 -20 12 -70 20 -115 24 -139 25 -498 1 -625 -2 -11
-7 -42 -10 -68 -4 -27 -10 -59 -12 -70 -3 -12 -7 -33 -10 -47 -10 -51 -34
-137 -54 -195 -11 -33 -21 -62 -22 -65 -7 -37 -66 -175 -123 -286 -53 -104
-184 -318 -204 -334 -3 -3 -24 -27 -46 -55 -301 -381 -722 -652 -1195 -771
-58 -14 -118 -28 -135 -30 -16 -3 -43 -7 -60 -9 -72 -11 -133 -17 -179 -19
-42 -1 -50 2 -52 19 -13 72 -19 222 -19 430 0 207 3 247 18 292 21 61 75 113
134 131 123 37 224 125 283 245 22 45 42 93 44 107 3 14 5 25 7 25 2 0 4 11
14 80 9 59 10 202 1 267 -6 52 -3 67 34 165 23 59 46 117 50 128 14 30 72 179
75 190 1 6 7 21 12 35 6 14 25 61 41 105 17 44 36 94 43 110 7 17 13 35 15 40
4 14 164 426 174 450 14 29 72 178 75 190 1 6 6 19 10 30 35 89 68 173 95 245
18 47 38 99 45 115 7 17 27 68 45 115 17 47 59 154 91 238 33 85 64 165 70
179 11 30 12 30 112 -72z"/>
<path d="M2471 4605 c-5 -5 -11 -23 -15 -40 -4 -16 -16 -59 -26 -95 -11 -36
-42 -146 -70 -245 -28 -99 -57 -202 -65 -230 -48 -163 -113 -400 -110 -403 6
-6 202 -5 212 1 6 4 18 35 27 69 10 35 24 84 32 109 l15 46 139 -1 c79 0 143
-5 148 -11 4 -5 19 -53 31 -105 13 -52 27 -99 31 -105 7 -8 61 -10 216 -6 22
1 22 1 -8 109 -16 59 -31 114 -32 122 -2 8 -11 40 -20 70 -15 51 -51 185 -60
220 -4 14 -29 107 -61 225 -8 28 -23 84 -34 126 -11 41 -26 93 -33 115 l-13
39 -148 0 c-89 0 -152 -4 -156 -10z m164 -230 c5 -22 9 -44 11 -50 1 -5 5 -26
9 -45 3 -19 10 -51 15 -70 5 -19 12 -48 14 -65 3 -16 8 -41 12 -55 3 -14 8
-42 11 -62 l6 -38 -102 0 c-55 0 -101 4 -101 8 0 4 9 50 21 102 21 96 23 107
36 170 9 46 10 50 13 53 2 3 6 21 15 66 12 67 25 62 40 -14z"/>
<path d="M2554 3552 c-133 -174 -175 -319 -126 -433 24 -55 53 -85 107 -110
125 -58 269 43 277 193 3 57 -8 109 -37 173 -27 62 -112 190 -146 222 l-24 21
-51 -66z"/>
<path d="M726 2992 c1 -279 2 -510 3 -514 0 -5 51 -8 111 -8 l110 0 1 28 c1
15 1 111 2 215 1 162 3 187 16 188 9 0 95 1 192 1 l175 1 1 84 c0 46 -4 86 -9
89 -5 3 -91 7 -191 8 l-182 1 -1 118 -1 117 198 0 199 0 0 90 0 90 -313 0
-312 0 1 -508z"/>
<path d="M1053 1920 c-18 -11 -33 -17 -33 -14 0 4 -6 2 -13 -5 -12 -10 -73
-43 -217 -117 -30 -16 -58 -33 -61 -38 -8 -11 22 -66 36 -66 6 0 21 7 33 16
12 8 22 12 22 9 0 -3 17 6 37 20 21 14 45 25 53 25 10 0 29 -27 50 -70 35 -71
49 -81 82 -56 16 12 15 18 -22 89 l-40 76 45 24 c51 29 48 31 95 -63 18 -36
34 -67 36 -69 8 -8 54 22 54 35 0 7 -13 35 -28 61 -15 26 -40 74 -56 106 -15
31 -31 57 -34 57 -4 0 -22 -9 -39 -20z"/>
<path d="M1304 1537 c-6 -7 -32 -30 -59 -52 -26 -22 -68 -58 -93 -80 -24 -22
-53 -46 -63 -53 -11 -7 -33 -26 -50 -42 l-32 -28 22 -31 c12 -17 25 -31 28
-31 6 0 111 86 128 105 6 6 49 43 97 83 48 40 89 76 92 81 7 11 -32 61 -47 61
-7 -1 -17 -6 -23 -13z"/>
<path d="M1604 1253 c-18 -13 -136 -82 -244 -141 -25 -13 -52 -31 -61 -38 -8
-8 -20 -14 -25 -14 -5 0 -16 -5 -24 -10 -12 -8 -10 -14 14 -39 l28 -30 47 27
47 26 70 -52 c93 -68 106 -81 100 -97 -2 -7 -8 -29 -11 -47 -5 -29 -2 -35 25
-50 44 -25 47 -24 54 25 4 23 9 56 11 72 3 17 18 96 33 177 17 88 25 153 20
162 -4 8 -21 21 -37 29 -24 12 -31 12 -47 0z m6 -92 c0 -13 -29 -152 -35 -169
-3 -8 -24 2 -64 30 -33 24 -61 46 -61 49 0 3 29 23 65 44 36 21 68 42 71 47 7
11 24 10 24 -1z"/>
<path d="M1889 1074 c-14 -39 -13 -40 55 -73 l65 -31 -55 -159 c-29 -87 -54
-163 -54 -169 0 -14 62 -34 72 -24 5 5 10 18 13 30 2 11 9 31 16 44 7 13 11
23 10 23 -3 0 2 16 33 105 14 41 25 77 24 80 -1 3 4 15 11 28 11 20 15 21 28
10 9 -7 18 -12 20 -10 2 2 16 1 31 -2 71 -16 70 -16 77 15 4 17 5 32 3 33 -1
2 -42 15 -90 30 -48 15 -124 42 -168 61 l-81 34 -10 -25z"/>
<path d="M4148 3515 c-2 -2 -19 -5 -39 -8 -91 -12 -202 -91 -254 -181 -76
-131 -101 -348 -60 -523 3 -13 7 -32 9 -43 10 -45 68 -148 103 -184 83 -85
172 -119 303 -118 88 0 114 6 187 42 150 74 235 253 234 495 -1 212 -78 382
-211 466 -44 28 -126 50 -199 53 -38 2 -71 2 -73 1z m142 -203 c67 -50 100
-169 95 -347 -3 -140 -7 -160 -43 -234 -37 -77 -79 -104 -150 -99 -44 4 -59
11 -88 39 -58 59 -77 131 -78 299 -1 80 2 159 6 175 17 69 33 115 40 115 4 0
8 5 8 10 0 19 44 53 84 65 46 14 86 6 126 -23z"/>
<path d="M4211 2136 c-23 -28 -48 -104 -45 -140 4 -72 49 -116 117 -116 35 0
61 17 136 87 20 19 43 31 54 29 26 -4 56 -41 52 -64 -2 -9 -4 -22 -4 -28 -1
-6 -12 -28 -26 -48 l-24 -36 31 -16 c30 -16 32 -15 49 7 43 57 56 153 28 206
-7 14 -31 34 -52 45 -59 30 -103 18 -177 -48 -65 -58 -80 -63 -104 -38 -20 19
-13 68 14 106 25 35 25 34 -10 51 -22 12 -31 12 -39 3z"/>
<path d="M4037 1751 l-17 -30 60 -35 c34 -20 65 -36 71 -36 5 0 9 -4 9 -10 0
-5 4 -10 9 -10 5 0 57 -29 115 -64 109 -66 110 -66 135 -19 10 21 2 27 -161
124 -95 56 -179 104 -188 106 -9 2 -22 -8 -33 -26z"/>
<path d="M3891 1546 c-28 -30 -24 -37 49 -101 30 -27 66 -59 80 -71 14 -13 36
-32 49 -44 13 -11 21 -20 16 -20 -4 0 -75 20 -157 45 -82 25 -154 45 -160 45
-6 0 -25 -13 -44 -29 l-33 -29 60 -64 c33 -35 101 -105 151 -156 l91 -93 28
27 28 27 -57 60 c-31 32 -78 81 -104 108 -27 27 -45 50 -40 50 10 2 13 1 173
-45 158 -46 168 -46 194 3 14 28 13 30 -17 55 -17 14 -70 61 -117 103 -99 91
-110 101 -143 131 l-24 22 -23 -24z"/>
<path d="M3457 1174 c-24 -13 -27 -20 -23 -47 2 -18 8 -54 12 -82 3 -27 8 -58
10 -68 2 -10 6 -45 9 -78 4 -33 8 -70 11 -82 2 -12 7 -42 10 -67 3 -25 7 -46
9 -48 2 -2 17 4 35 13 30 15 31 17 25 68 l-6 52 43 24 c24 13 60 35 81 49 27
18 43 23 52 16 7 -5 26 -19 41 -30 l29 -22 34 23 33 24 -163 121 c-90 66 -172
127 -182 135 -21 18 -25 18 -60 -1z m141 -149 c28 -21 52 -43 52 -47 0 -10
-91 -68 -106 -68 -10 0 -16 24 -31 139 -6 50 -15 52 85 -24z"/>
<path d="M3145 1022 c-11 -2 -51 -12 -88 -23 -55 -16 -67 -23 -63 -37 3 -9 16
-53 30 -97 13 -44 39 -127 56 -185 18 -58 34 -108 36 -112 4 -6 62 6 70 15 2
2 -7 37 -20 78 l-24 74 32 13 c17 7 42 18 56 24 67 29 93 115 56 190 -22 45
-84 72 -141 60z m64 -94 c20 -20 22 -52 6 -78 -6 -10 -70 -40 -86 -40 -8 0
-39 92 -39 116 0 30 92 31 119 2z"/>
</g>
</svg>
